  0
SECTION
  2
HEADER
  9
$ACADVER
  1
AC1014
  9
$HANDSEED
  5
FFFF
  9
$MEASUREMENT
 70
     1
  0
ENDSEC
  0
SECTION
  2
TABLES
  0
TABLE
  2
VPORT
  5
8
330
0
100
AcDbSymbolTable
 70
     4
  0
VPORT
  5
2E
330
8
100
AcDbSymbolTableRecord
100
AcDbViewportTableRecord
  2
*ACTIVE
 70
     0
 10
0.0
 20
0.0
 11
1.0
 21
1.0
 12
210.0
 22
148.5
 13
0.0
 23
0.0
 14
10.0
 24
10.0
 15
10.0
 25
10.0
 16
0.0
 26
0.0
 36
1.0
 17
0.0
 27
0.0
 37
0.0
 40
341.0
 41
1.24
 42
50.0
 43
0.0
 44
0.0
 50
0.0
 51
0.0
 71
     0
 72
   100
 73
     1
 74
     3
 75
     0
 76
     0
 77
     0
 78
     0
  0
ENDTAB
  0
TABLE
  2
LTYPE
  5
5
330
0
100
AcDbSymbolTable
 70
     1
  0
LTYPE
  5
14
330
5
100
AcDbSymbolTableRecord
100
AcDbLinetypeTableRecord
  2
BYBLOCK
 70
     0
  3

 72
    65
 73
     0
 40
0.0
  0
LTYPE
  5
15
330
5
100
AcDbSymbolTableRecord
100
AcDbLinetypeTableRecord
  2
BYLAYER
 70
     0
  3

 72
    65
 73
     0
 40
0.0
  0
LTYPE
  5
16
330
5
100
AcDbSymbolTableRecord
100
AcDbLinetypeTableRecord
  2
CONTINUOUS
 70
     0
  3
Solid line
 72
    65
 73
     0
 40
0.0
  0
ENDTAB
  0
TABLE
  2
LAYER
  5
2
100
AcDbSymbolTable
 70
2
  0
LAYER
  5
50
100
AcDbSymbolTableRecord
100
AcDbLayerTableRecord
  2
0
 70
0
  6
CONTINUOUS
  0
LAYER
  5
51
100
AcDbSymbolTableRecord
100
AcDbLayerTableRecord
  2
Livello_1
 70
0
  6
CONTINUOUS
  0
ENDTAB
  0
TABLE
  2
STYLE
  5
3
330
0
100
AcDbSymbolTable
 70
     1
  0
STYLE
  5
11
330
3
100
AcDbSymbolTableRecord
100
AcDbTextStyleTableRecord
  2
STANDARD
 70
     0
 40
0.0
 41
1.0
 50
0.0
 71
     0
 42
2.5
  3
txt
  4

  0
ENDTAB
  0
TABLE
  2
VIEW
  5
6
330
0
100
AcDbSymbolTable
 70
     0
  0
ENDTAB
  0
TABLE
  2
UCS
  5
7
330
0
100
AcDbSymbolTable
 70
     0
  0
ENDTAB
  0
TABLE
  2
APPID
  5
9
330
0
100
AcDbSymbolTable
 70
     2
  0
APPID
  5
12
330
9
100
AcDbSymbolTableRecord
100
AcDbRegAppTableRecord
  2
ACAD
 70
     0
  0
ENDTAB
  0
TABLE
  2
DIMSTYLE
  5
A
330
0
100
AcDbSymbolTable
 70
     1
  0
DIMSTYLE
105
27
330
A
100
AcDbSymbolTableRecord
100
AcDbDimStyleTableRecord
  2
ISO-25
 70
     0
  3

  4

  5

  6

  7

 40
1.0
 41
2.5
 42
0.625
 43
3.75
 44
1.25
 45
0.0
 46
0.0
 47
0.0
 48
0.0
140
2.5
141
2.5
142
0.0
143
0.03937007874016
144
1.0
145
0.0
146
1.0
147
0.625
 71
     0
 72
     0
 73
     0
 74
     0
 75
     0
 76
     0
 77
     1
 78
     8
170
     0
171
     3
172
     1
173
     0
174
     0
175
     0
176
     0
177
     0
178
     0
270
     2
271
     2
272
     2
273
     2
274
     3
340
11
275
     0
280
     0
281
     0
282
     0
283
     0
284
     8
285
     0
286
     0
287
     3
288
     0
  0
ENDTAB
  0
TABLE
  2
BLOCK_RECORD
  5
1
330
0
100
AcDbSymbolTable
 70
     1
  0
BLOCK_RECORD
  5
1F
330
1
100
AcDbSymbolTableRecord
100
AcDbBlockTableRecord
  2
*MODEL_SPACE
  0
BLOCK_RECORD
  5
1B
330
1
100
AcDbSymbolTableRecord
100
AcDbBlockTableRecord
  2
*PAPER_SPACE
  0
ENDTAB
  0
ENDSEC
  0
SECTION
  2
BLOCKS
  0
BLOCK
  5
20
330
1F
100
AcDbEntity
  8
0
100
AcDbBlockBegin
  2
*MODEL_SPACE
 70
     0
 10
0.0
 20
0.0
 30
0.0
  3
*MODEL_SPACE
  1

  0
ENDBLK
  5
21
330
1F
100
AcDbEntity
  8
0
100
AcDbBlockEnd
  0
BLOCK
  5
1C
330
1B
100
AcDbEntity
 67
     1
  8
0
100
AcDbBlockBegin
  2
*PAPER_SPACE
  1

  0
ENDBLK
  5
1D
330
1B
100
AcDbEntity
 67
     1
  8
0
100
AcDbBlockEnd
  0
ENDSEC
  0
SECTION
  2
ENTITIES
  0
LWPOLYLINE
  5
100
100
AcDbEntity
  8
Livello_1
 62
7
100
AcDbPolyline
 90
97
 70
1
 10
11.895846
 20
40.031258
 30
0.0
 10
10.916095
 20
40.023243
 30
0.0
 10
9.711991
 20
39.937501
 30
0.0
 10
8.310796
 20
39.681455
 30
0.0
 10
6.739778
 20
39.162538
 30
0.0
 10
5.186311
 20
38.363268
 30
0.0
 10
3.822077
 20
37.342112
 30
0.0
 10
2.655929
 20
36.122537
 30
0.0
 10
1.696709
 20
34.728009
 30
0.0
 10
1.010811
 20
33.332338
 30
0.0
 10
0.552137
 20
31.985026
 30
0.0
 10
0.269977
 20
30.711783
 30
0.0
 10
0.113618
 20
29.538318
 30
0.0
 10
0.037186
 20
28.523565
 30
0.0
 10
0.005473
 20
27.600811
 30
0.0
 10
-0.000002
 20
26.771343
 30
0.0
 10
0.002256
 20
26.036453
 30
0.0
 10
0.002256
 20
22.496551
 30
0.0
 10
0.002256
 20
18.956647
 30
0.0
 10
0.002256
 20
15.416744
 30
0.0
 10
0.002256
 20
11.876842
 30
0.0
 10
0.003102
 20
11.251438
 30
0.0
 10
0.023620
 20
10.504876
 30
0.0
 10
0.090936
 20
9.640768
 30
0.0
 10
0.232120
 20
8.662698
 30
0.0
 10
0.472074
 20
7.604308
 30
0.0
 10
0.828577
 20
6.522353
 30
0.0
 10
1.322175
 20
5.432242
 30
0.0
 10
1.973409
 20
4.349440
 30
0.0
 10
2.782122
 20
3.316704
 30
0.0
 10
3.723330
 20
2.391608
 30
0.0
 10
4.795958
 20
1.588968
 30
0.0
 10
5.998933
 20
0.923629
 30
0.0
 10
5.999074
 20
0.923629
 30
0.0
 10
5.999216
 20
0.923629
 30
0.0
 10
5.999357
 20
0.923629
 30
0.0
 10
5.999498
 20
0.923629
 30
0.0
 10
7.293691
 20
0.425252
 30
0.0
 10
8.632011
 20
0.116276
 30
0.0
 10
10.003174
 20
-0.000000
 30
0.0
 10
11.395896
 20
0.079728
 30
0.0
 10
11.205726
 20
0.067592
 30
0.0
 10
11.015557
 20
0.055457
 30
0.0
 10
10.825388
 20
0.043603
 30
0.0
 10
10.635218
 20
0.031468
 30
0.0
 10
17.976993
 20
0.031468
 30
0.0
 10
25.318767
 20
0.031468
 30
0.0
 10
32.660539
 20
0.031468
 30
0.0
 10
40.002313
 20
0.031468
 30
0.0
 10
40.002313
 20
6.327027
 30
0.0
 10
40.002313
 20
12.622586
 30
0.0
 10
40.002313
 20
18.918166
 30
0.0
 10
40.002313
 20
25.213731
 30
0.0
 10
33.723696
 20
25.180519
 30
0.0
 10
27.445080
 20
25.147307
 30
0.0
 10
21.166462
 20
25.114098
 30
0.0
 10
14.887845
 20
25.080886
 30
0.0
 10
14.903692
 20
22.081033
 30
0.0
 10
14.919538
 20
19.081183
 30
0.0
 10
14.935385
 20
16.081330
 30
0.0
 10
14.951232
 20
13.081480
 30
0.0
 10
18.214013
 20
13.098695
 30
0.0
 10
21.476794
 20
13.115911
 30
0.0
 10
24.739575
 20
13.133126
 30
0.0
 10
28.002356
 20
13.150342
 30
0.0
 10
28.002356
 20
12.870603
 30
0.0
 10
28.002356
 20
12.590865
 30
0.0
 10
28.002356
 20
12.311126
 30
0.0
 10
28.002356
 20
12.031387
 30
0.0
 10
24.002325
 20
12.031387
 30
0.0
 10
20.002293
 20
12.031387
 30
0.0
 10
16.002262
 20
12.031387
 30
0.0
 10
12.002230
 20
12.031387
 30
0.0
 10
12.002230
 20
15.532568
 30
0.0
 10
12.002230
 20
19.033750
 30
0.0
 10
12.002230
 20
22.534934
 30
0.0
 10
12.002230
 20
26.036115
 30
0.0
 10
12.004742
 20
26.648554
 30
0.0
 10
12.012728
 20
27.173896
 30
0.0
 10
12.026907
 20
27.629062
 30
0.0
 10
12.047989
 20
28.030963
 30
0.0
 10
19.036572
 20
28.030963
 30
0.0
 10
26.025155
 20
28.030963
 30
0.0
 10
33.013735
 20
28.030963
 30
0.0
 10
40.002319
 20
28.030963
 30
0.0
 10
40.002319
 20
31.030951
 30
0.0
 10
40.002319
 20
34.030940
 30
0.0
 10
40.002319
 20
37.030931
 30
0.0
 10
40.002319
 20
40.030919
 30
0.0
 10
32.975702
 20
40.030919
 30
0.0
 10
25.949087
 20
40.030919
 30
0.0
 10
18.922471
 20
40.030919
 30
0.0
 10
11.895854
 20
40.030919
 30
0.0
 10
11.895850
 20
40.030919
 30
0.0
 10
11.895847
 20
40.030919
 30
0.0
 10
11.895844
 20
40.030919
 30
0.0
 10
11.895846
 20
40.031258
 30
0.0
  0
ENDSEC
  0
SECTION
  2
OBJECTS
  0
DICTIONARY
  5
C
330
0
100
AcDbDictionary
  3
ACAD_GROUP
350
D
  3
ACAD_MLINESTYLE
350
17
  0
DICTIONARY
  5
D
330
C
100
AcDbDictionary
  0
DICTIONARY
  5
1A
330
C
100
AcDbDictionary
  0
DICTIONARY
  5
17
330
C
100
AcDbDictionary
  3
STANDARD
350
18
  0
DICTIONARY
  5
19
330
C
100
AcDbDictionary
  0
ENDSEC
  0
EOF
