<?xml version="1.0" encoding="UTF-8" standalone="no"?>
<!-- Created with Inkscape (http://www.inkscape.org/) -->

<svg
   xmlns:dc="http://purl.org/dc/elements/1.1/"
   xmlns:cc="http://creativecommons.org/ns#"
   xmlns:rdf="http://www.w3.org/1999/02/22-rdf-syntax-ns#"
   xmlns:svg="http://www.w3.org/2000/svg"
   xmlns="http://www.w3.org/2000/svg"
   xmlns:sodipodi="http://sodipodi.sourceforge.net/DTD/sodipodi-0.dtd"
   xmlns:inkscape="http://www.inkscape.org/namespaces/inkscape"
   width="40mm"
   height="40mm"
   id="svg2"
   version="1.1"
   inkscape:version="0.91pre2 r"
   viewBox="0 0 141.73228 141.73229"
   sodipodi:docname="lettere.svg">
  <defs
     id="defs4">
    <inkscape:path-effect
       effect="spiro"
       id="path-effect4217"
       is_visible="true" />
    <inkscape:path-effect
       effect="spiro"
       id="path-effect4206"
       is_visible="true" />
    <inkscape:path-effect
       effect="spiro"
       id="path-effect4157"
       is_visible="true" />
    <inkscape:path-effect
       effect="spiro"
       id="path-effect4151"
       is_visible="true" />
  </defs>
  <sodipodi:namedview
     id="base"
     pagecolor="#ffffff"
     bordercolor="#666666"
     borderopacity="1.0"
     inkscape:pageopacity="0.0"
     inkscape:pageshadow="2"
     inkscape:zoom="1.979899"
     inkscape:cx="114.90727"
     inkscape:cy="72.493454"
     inkscape:document-units="px"
     inkscape:current-layer="layer1"
     showgrid="false"
     units="mm"
     inkscape:window-width="1600"
     inkscape:window-height="876"
     inkscape:window-x="0"
     inkscape:window-y="24"
     inkscape:window-maximized="1" />
  <metadata
     id="metadata7">
    <rdf:RDF>
      <cc:Work
         rdf:about="">
        <dc:format>image/svg+xml</dc:format>
        <dc:type
           rdf:resource="http://purl.org/dc/dcmitype/StillImage" />
        <dc:title></dc:title>
      </cc:Work>
    </rdf:RDF>
  </metadata>
  <g
     inkscape:label="Livello 1"
     inkscape:groupmode="layer"
     id="layer1"
     transform="translate(0,-910.62991)">
    <path
       style="color:#000000;font-style:normal;font-variant:normal;font-weight:normal;font-stretch:normal;font-size:medium;line-height:normal;font-family:sans-serif;text-indent:0;text-align:start;text-decoration:none;text-decoration-line:none;text-decoration-style:solid;text-decoration-color:#000000;letter-spacing:normal;word-spacing:normal;text-transform:none;direction:ltr;block-progression:tb;writing-mode:lr-tb;baseline-shift:baseline;text-anchor:start;clip-rule:nonzero;display:inline;overflow:visible;visibility:visible;opacity:1;isolation:auto;mix-blend-mode:normal;color-interpolation:sRGB;color-interpolation-filters:linearRGB;solid-color:#000000;solid-opacity:1;fill:#000000;fill-opacity:0.63921569;fill-rule:evenodd;stroke:none;stroke-width:53.14960861;stroke-linecap:butt;stroke-linejoin:miter;stroke-miterlimit:4;stroke-dasharray:none;stroke-dashoffset:0;stroke-opacity:1;color-rendering:auto;image-rendering:auto;shape-rendering:auto;text-rendering:auto;enable-background:accumulate"
       d="m 182.32826,929.8228 c -1.54922,20.55297 -2.82224,41.12645 -3.78711,61.71485 c -1.24917,26.65495 -2.00122,53.33475 -2.26953,80.01765 l 53.36719,0 c 0.11323,-10.8815 0.29288,-32.8736 0.57226,-43.7523 c 4.84065,10.8018 9.49754,22.1891 13.97266,33.1457 l 2.95312,0 l 2.95508,0 c 4.47512,-10.9566 9.13201,-22.3439 13.97266,-33.1457 c 0.27938,10.8787 0.45903,32.8708 0.57226,43.7523 l 53.36719,0 c -0.26831,-26.6829 -1.02035,-53.3627 -2.26953,-80.01765 c -0.96487,-20.5884 -2.23789,-41.16188 -3.78711,-61.71485 l -53.49609,0 c 0.0312,0.43172 0.0626,0.86341 0.0957,1.29493 c -3.88286,6.96241 -7.67861,31.14445 -11.41016,38.18822 c -3.73154,-7.04377 -7.52729,-31.22581 -11.41015,-38.18822 c 0.0331,-0.43152 0.0664,-0.86321 0.0977,-1.29493 z"
       id="path4149"
       inkscape:connector-curvature="0"
       sodipodi:nodetypes="cscccccccccsccccccc" />
    <path
       style="color:#000000;font-style:normal;font-variant:normal;font-weight:normal;font-stretch:normal;font-size:medium;line-height:normal;font-family:sans-serif;text-indent:0;text-align:start;text-decoration:none;text-decoration-line:none;text-decoration-style:solid;text-decoration-color:#000000;letter-spacing:normal;word-spacing:normal;text-transform:none;direction:ltr;block-progression:tb;writing-mode:lr-tb;baseline-shift:baseline;text-anchor:start;clip-rule:nonzero;display:inline;overflow:visible;visibility:visible;opacity:1;isolation:auto;mix-blend-mode:normal;color-interpolation:sRGB;color-interpolation-filters:linearRGB;solid-color:#000000;solid-opacity:1;fill:#000000;fill-opacity:0.63921569;fill-rule:evenodd;stroke:none;stroke-width:53.14960861;stroke-linecap:butt;stroke-linejoin:miter;stroke-miterlimit:4;stroke-dasharray:none;stroke-dashoffset:0;stroke-opacity:1;color-rendering:auto;image-rendering:auto;shape-rendering:auto;text-rendering:auto;enable-background:accumulate"
       d="m 258.57144,870.27371 l 0,130.08009 l 19.91016,5.1582 c 16.6315,4.3087 33.77455,6.4922 50.95508,6.4922 c 17.18053,0 34.32553,-2.1835 50.95703,-6.4922 l 19.91015,-5.1582 l 0,-130.08009 l -53.15039,0 l 0,87.49414 c -5.88155,0.69972 -11.80205,1.08789 -17.71679,1.08789 c -5.91474,0 -11.83329,-0.38817 -17.71485,-1.08789 l 0,-87.49414 l -53.15039,0 z"
       id="path4204"
       inkscape:connector-curvature="0" />
    <path
       style="color:#000000;font-style:normal;font-variant:normal;font-weight:normal;font-stretch:normal;font-size:medium;line-height:normal;font-family:sans-serif;text-indent:0;text-align:start;text-decoration:none;text-decoration-line:none;text-decoration-style:solid;text-decoration-color:#000000;letter-spacing:normal;word-spacing:normal;text-transform:none;direction:ltr;block-progression:tb;writing-mode:lr-tb;baseline-shift:baseline;text-anchor:start;clip-rule:nonzero;display:inline;overflow:visible;visibility:visible;opacity:1;isolation:auto;mix-blend-mode:normal;color-interpolation:sRGB;color-interpolation-filters:linearRGB;solid-color:#000000;solid-opacity:1;fill:#000000;fill-opacity:0.63921569;fill-rule:evenodd;stroke:none;stroke-width:42.51968384;stroke-linecap:butt;stroke-linejoin:miter;stroke-miterlimit:4;stroke-dasharray:none;stroke-dashoffset:0;stroke-opacity:1;color-rendering:auto;image-rendering:auto;shape-rendering:auto;text-rendering:auto;enable-background:accumulate"
       d="m 42.142578,910.63086 c -4.055834,0 -10.489177,-0.1402 -18.269531,3.07812 c -7.772288,3.215 -13.840145,8.74827 -17.8691408,15.7129 c -3.8570949,6.66745 -5.08798069,13.12093 -5.60937495,18.38867 C -0.10129344,952.81994 0,956.97224 0,960.21875 l 0,50.17185 c 0,2.6627 -0.06968529,6.5044 0.81445312,11.3887 c 0.89064228,4.9204 2.68851498,10.209 6.16992188,15.2832 c 3.506034,5.1099 8.274094,9.343 14.263672,12.1387 l 0.002,0 c 5.992289,2.7967 12.508149,3.835 19.121094,2.9902 l -2.695313,0.1699 l 104.056639,0 l 0,-89.22849 l -88.988279,0.47071 l 0.224609,42.51758 l 46.244141,-0.2441 l 0,3.9648 l -56.69336,0 l 0,-49.62305 c 0,-3.12579 0.04509,-5.26878 0.16211,-7.06836 l 99.050779,0 l 0,-42.51953 l -99.589842,0 z"
       id="path4215"
       inkscape:connector-curvature="0" />
  </g>
</svg>
