  0
SECTION
  2
HEADER
  9
$ACADVER
  1
AC1014
  9
$HANDSEED
  5
FFFF
  9
$MEASUREMENT
 70
     1
  0
ENDSEC
  0
SECTION
  2
TABLES
  0
TABLE
  2
VPORT
  5
8
330
0
100
AcDbSymbolTable
 70
     4
  0
VPORT
  5
2E
330
8
100
AcDbSymbolTableRecord
100
AcDbViewportTableRecord
  2
*ACTIVE
 70
     0
 10
0.0
 20
0.0
 11
1.0
 21
1.0
 12
210.0
 22
148.5
 13
0.0
 23
0.0
 14
10.0
 24
10.0
 15
10.0
 25
10.0
 16
0.0
 26
0.0
 36
1.0
 17
0.0
 27
0.0
 37
0.0
 40
341.0
 41
1.24
 42
50.0
 43
0.0
 44
0.0
 50
0.0
 51
0.0
 71
     0
 72
   100
 73
     1
 74
     3
 75
     0
 76
     0
 77
     0
 78
     0
  0
ENDTAB
  0
TABLE
  2
LTYPE
  5
5
330
0
100
AcDbSymbolTable
 70
     1
  0
LTYPE
  5
14
330
5
100
AcDbSymbolTableRecord
100
AcDbLinetypeTableRecord
  2
BYBLOCK
 70
     0
  3

 72
    65
 73
     0
 40
0.0
  0
LTYPE
  5
15
330
5
100
AcDbSymbolTableRecord
100
AcDbLinetypeTableRecord
  2
BYLAYER
 70
     0
  3

 72
    65
 73
     0
 40
0.0
  0
LTYPE
  5
16
330
5
100
AcDbSymbolTableRecord
100
AcDbLinetypeTableRecord
  2
CONTINUOUS
 70
     0
  3
Solid line
 72
    65
 73
     0
 40
0.0
  0
ENDTAB
  0
TABLE
  2
LAYER
  5
2
100
AcDbSymbolTable
 70
2
  0
LAYER
  5
50
100
AcDbSymbolTableRecord
100
AcDbLayerTableRecord
  2
0
 70
0
  6
CONTINUOUS
  0
LAYER
  5
51
100
AcDbSymbolTableRecord
100
AcDbLayerTableRecord
  2
Livello_1
 70
0
  6
CONTINUOUS
  0
ENDTAB
  0
TABLE
  2
STYLE
  5
3
330
0
100
AcDbSymbolTable
 70
     1
  0
STYLE
  5
11
330
3
100
AcDbSymbolTableRecord
100
AcDbTextStyleTableRecord
  2
STANDARD
 70
     0
 40
0.0
 41
1.0
 50
0.0
 71
     0
 42
2.5
  3
txt
  4

  0
ENDTAB
  0
TABLE
  2
VIEW
  5
6
330
0
100
AcDbSymbolTable
 70
     0
  0
ENDTAB
  0
TABLE
  2
UCS
  5
7
330
0
100
AcDbSymbolTable
 70
     0
  0
ENDTAB
  0
TABLE
  2
APPID
  5
9
330
0
100
AcDbSymbolTable
 70
     2
  0
APPID
  5
12
330
9
100
AcDbSymbolTableRecord
100
AcDbRegAppTableRecord
  2
ACAD
 70
     0
  0
ENDTAB
  0
TABLE
  2
DIMSTYLE
  5
A
330
0
100
AcDbSymbolTable
 70
     1
  0
DIMSTYLE
105
27
330
A
100
AcDbSymbolTableRecord
100
AcDbDimStyleTableRecord
  2
ISO-25
 70
     0
  3

  4

  5

  6

  7

 40
1.0
 41
2.5
 42
0.625
 43
3.75
 44
1.25
 45
0.0
 46
0.0
 47
0.0
 48
0.0
140
2.5
141
2.5
142
0.0
143
0.03937007874016
144
1.0
145
0.0
146
1.0
147
0.625
 71
     0
 72
     0
 73
     0
 74
     0
 75
     0
 76
     0
 77
     1
 78
     8
170
     0
171
     3
172
     1
173
     0
174
     0
175
     0
176
     0
177
     0
178
     0
270
     2
271
     2
272
     2
273
     2
274
     3
340
11
275
     0
280
     0
281
     0
282
     0
283
     0
284
     8
285
     0
286
     0
287
     3
288
     0
  0
ENDTAB
  0
TABLE
  2
BLOCK_RECORD
  5
1
330
0
100
AcDbSymbolTable
 70
     1
  0
BLOCK_RECORD
  5
1F
330
1
100
AcDbSymbolTableRecord
100
AcDbBlockTableRecord
  2
*MODEL_SPACE
  0
BLOCK_RECORD
  5
1B
330
1
100
AcDbSymbolTableRecord
100
AcDbBlockTableRecord
  2
*PAPER_SPACE
  0
ENDTAB
  0
ENDSEC
  0
SECTION
  2
BLOCKS
  0
BLOCK
  5
20
330
1F
100
AcDbEntity
  8
0
100
AcDbBlockBegin
  2
*MODEL_SPACE
 70
     0
 10
0.0
 20
0.0
 30
0.0
  3
*MODEL_SPACE
  1

  0
ENDBLK
  5
21
330
1F
100
AcDbEntity
  8
0
100
AcDbBlockEnd
  0
BLOCK
  5
1C
330
1B
100
AcDbEntity
 67
     1
  8
0
100
AcDbBlockBegin
  2
*PAPER_SPACE
  1

  0
ENDBLK
  5
1D
330
1B
100
AcDbEntity
 67
     1
  8
0
100
AcDbBlockEnd
  0
ENDSEC
  0
SECTION
  2
ENTITIES
  0
LWPOLYLINE
  5
100
100
AcDbEntity
  8
Livello_1
 62
7
100
AcDbPolyline
 90
73
 70
1
 10
38.290717
 20
40.000061
 30
0.0
 10
38.603880
 20
35.648621
 30
0.0
 10
38.886965
 20
31.295159
 30
0.0
 10
39.139128
 20
26.939824
 30
0.0
 10
39.359524
 20
22.582759
 30
0.0
 10
39.597686
 20
16.939576
 30
0.0
 10
39.783588
 20
11.294336
 30
0.0
 10
39.917587
 20
5.647634
 30
0.0
 10
40.000036
 20
0.000000
 30
0.0
 10
36.234683
 20
0.000000
 30
0.0
 10
32.469334
 20
0.000000
 30
0.0
 10
28.703981
 20
0.000000
 30
0.0
 10
24.938629
 20
0.000000
 30
0.0
 10
24.910999
 20
2.793182
 30
0.0
 10
24.875460
 20
6.174232
 30
0.0
 10
24.831128
 20
9.555141
 30
0.0
 10
24.777123
 20
12.347871
 30
0.0
 10
23.762234
 20
10.034976
 30
0.0
 10
22.766741
 20
7.687028
 30
0.0
 10
21.790589
 20
5.330867
 30
0.0
 10
20.833728
 20
2.993418
 30
0.0
 10
20.625369
 20
2.993418
 30
0.0
 10
20.417010
 20
2.993418
 30
0.0
 10
20.208651
 20
2.993418
 30
0.0
 10
20.000292
 20
2.993418
 30
0.0
 10
19.791795
 20
2.993418
 30
0.0
 10
19.583298
 20
2.993418
 30
0.0
 10
19.374800
 20
2.993418
 30
0.0
 10
19.166303
 20
2.993418
 30
0.0
 10
18.209442
 20
5.330867
 30
0.0
 10
17.233291
 20
7.687028
 30
0.0
 10
16.237797
 20
10.034976
 30
0.0
 10
15.222908
 20
12.347871
 30
0.0
 10
15.168903
 20
9.555141
 30
0.0
 10
15.124571
 20
6.174232
 30
0.0
 10
15.089032
 20
2.793182
 30
0.0
 10
15.061402
 20
0.000000
 30
0.0
 10
11.296051
 20
0.000000
 30
0.0
 10
7.530699
 20
0.000000
 30
0.0
 10
3.765348
 20
0.000000
 30
0.0
 10
-0.000004
 20
0.000000
 30
0.0
 10
0.082447
 20
5.647634
 30
0.0
 10
0.216445
 20
11.294336
 30
0.0
 10
0.402348
 20
16.939576
 30
0.0
 10
0.640510
 20
22.582759
 30
0.0
 10
0.860906
 20
26.939824
 30
0.0
 10
1.113070
 20
31.295159
 30
0.0
 10
1.396155
 20
35.648621
 30
0.0
 10
1.709316
 20
40.000061
 30
0.0
 10
5.483762
 20
40.000061
 30
0.0
 10
9.258209
 20
40.000061
 30
0.0
 10
13.032655
 20
40.000061
 30
0.0
 10
16.807101
 20
40.000061
 30
0.0
 10
16.800480
 20
39.908683
 30
0.0
 10
16.793797
 20
39.817311
 30
0.0
 10
16.787015
 20
39.725950
 30
0.0
 10
16.780092
 20
39.634603
 30
0.0
 10
17.597456
 20
37.401195
 30
0.0
 10
18.406206
 20
34.254432
 30
0.0
 10
19.206950
 20
31.103361
 30
0.0
 10
20.000293
 20
28.857039
 30
0.0
 10
20.793634
 20
31.103361
 30
0.0
 10
21.594377
 20
34.254432
 30
0.0
 10
22.403127
 20
37.401195
 30
0.0
 10
23.220491
 20
39.634603
 30
0.0
 10
23.213483
 20
39.725950
 30
0.0
 10
23.206512
 20
39.817311
 30
0.0
 10
23.199638
 20
39.908683
 30
0.0
 10
23.192915
 20
40.000061
 30
0.0
 10
26.967365
 20
40.000061
 30
0.0
 10
30.741815
 20
40.000061
 30
0.0
 10
34.516266
 20
40.000061
 30
0.0
 10
38.290717
 20
40.000061
 30
0.0
  0
ENDSEC
  0
SECTION
  2
OBJECTS
  0
DICTIONARY
  5
C
330
0
100
AcDbDictionary
  3
ACAD_GROUP
350
D
  3
ACAD_MLINESTYLE
350
17
  0
DICTIONARY
  5
D
330
C
100
AcDbDictionary
  0
DICTIONARY
  5
1A
330
C
100
AcDbDictionary
  0
DICTIONARY
  5
17
330
C
100
AcDbDictionary
  3
STANDARD
350
18
  0
DICTIONARY
  5
19
330
C
100
AcDbDictionary
  0
ENDSEC
  0
EOF
